<svg width="708" height="186" viewBox="0 0 708 186" fill="none" xmlns="http://www.w3.org/2000/svg">
<path d="M73.8548 73.0823C52.9537 98.3149 -0.510919 127.044 0.00368892 69.7087C0.518297 12.3737 43.7141 0 81.2555 0C118.797 0 93.3932 49.4949 73.8548 73.0823Z" fill="#FF6F00"/>
<path d="M186.914 108.279C186.914 76.5722 191.296 -31.7826 137.46 9.43613C83.6241 50.6549 35.2966 186 117.358 186C176.754 186 186.914 139.987 186.914 108.279Z" fill="#1976D2"/>
<path d="M62.6418 148.909C62.6418 124.935 48.4976 111.75 29.6982 113.684C9.33351 115.778 0.518288 129.932 0.518288 151.2C0.518288 167.556 3.81854 185.21 30.8279 185.605C57.8372 186 62.6418 175.589 62.6418 148.909Z" fill="#FF4D3D"/>
<path d="M219.617 144C218.445 144 217.494 143.039 217.494 141.854V43.1458C217.494 41.9607 218.445 40.9999 219.617 40.9999H284.377C285.549 40.9999 286.5 41.9607 286.5 43.1458V55.4237C286.5 56.6088 285.549 57.5695 284.377 57.5695H237.761C236.589 57.5695 235.638 58.5302 235.638 59.7153V85.3311C235.638 86.5162 236.589 87.477 237.761 87.477H279.915C281.088 87.477 282.038 88.4377 282.038 89.6228V101.901C282.038 103.086 281.088 104.047 279.915 104.047H237.761C236.589 104.047 235.638 105.007 235.638 106.192V141.854C235.638 143.039 234.687 144 233.515 144H219.617Z" fill="black"/>
<path d="M301.636 119.668V65.3318C301.636 49.1106 309.717 40.9999 325.878 40.9999H359.934C376.095 40.9999 384.176 49.1106 384.176 65.3318V119.668C384.176 135.889 376.095 144 359.934 144H325.878C309.717 144 301.636 135.889 301.636 119.668ZM319.78 121.012C319.78 125.291 321.961 127.43 326.324 127.43H359.488C363.851 127.43 366.032 125.291 366.032 121.012V63.9883C366.032 59.7091 363.851 57.5695 359.488 57.5695H326.324C321.961 57.5695 319.78 59.7091 319.78 63.9883V121.012Z" fill="black"/>
<path d="M401.623 143.675C400.451 143.675 399.5 142.714 399.5 141.529V42.8206C399.5 41.6355 400.451 40.6748 401.623 40.6748H448.875C465.036 40.6748 473.116 48.7854 473.116 65.0067V79.5353C473.116 90.975 468.99 98.3146 460.738 101.554C459.479 102.048 458.822 103.52 459.435 104.735L476.325 140.554C477.045 141.982 476.019 143.675 474.434 143.675H459.692C458.895 143.675 458.164 143.223 457.801 142.506L439.948 104.887C439.585 104.169 438.855 103.718 438.058 103.718H419.767C418.594 103.718 417.644 104.679 417.644 105.864V141.529C417.644 142.714 416.693 143.675 415.521 143.675H401.623ZM417.644 85.0025C417.644 86.1876 418.594 87.1484 419.767 87.1484H448.429C452.791 87.1484 454.972 84.959 454.972 80.5802V63.6632C454.972 59.384 452.791 57.2444 448.429 57.2444H419.767C418.594 57.2444 417.644 58.2051 417.644 59.3902V85.0025Z" fill="black"/>
<path d="M495.123 144C493.95 144 493 143.039 493 141.854V43.1458C493 41.9607 493.95 40.9999 495.123 40.9999H513.962C514.783 40.9999 515.531 41.4793 515.882 42.2305L544.172 102.864C544.938 104.505 547.248 104.505 548.013 102.864L576.303 42.2306C576.654 41.4793 577.402 40.9999 578.224 40.9999H597.062C598.235 40.9999 599.186 41.9607 599.186 43.1458V141.854C599.186 143.039 598.235 144 597.062 144H583.016C581.844 144 580.893 143.039 580.893 141.854V81.6171C580.893 79.3266 577.818 78.6295 576.85 80.7007L554.401 128.739C554.05 129.489 553.302 129.968 552.481 129.968H539.556C538.735 129.968 537.987 129.489 537.636 128.739L515.187 80.7007C514.219 78.6295 511.144 79.3266 511.144 81.6171V141.854C511.144 143.039 510.193 144 509.02 144H495.123Z" fill="black"/>
<path d="M646.473 42.4863C646.756 41.6003 647.572 40.9999 648.494 40.9999H673.656C674.579 40.9999 675.396 41.6024 675.678 42.4905L707 141.199C707.439 142.584 706.417 144 704.978 144H690.747C689.818 144 688.996 143.389 688.72 142.492L682.659 122.818C682.383 121.921 681.562 121.31 680.632 121.31H641.362C640.438 121.31 639.619 121.915 639.339 122.806L633.142 142.504C632.861 143.395 632.043 144 631.118 144H616.949C615.508 144 614.486 142.58 614.929 141.195L646.473 42.4863ZM645.737 101.949C645.306 103.332 646.327 104.741 647.762 104.741H674.382C675.819 104.741 676.841 103.327 676.405 101.943L662.843 58.9279C662.588 58.1188 661.845 57.5695 661.004 57.5695C660.162 57.5695 659.417 58.1215 659.164 58.9333L645.737 101.949Z" fill="black"/>
</svg>
