<svg width="800" height="190" viewBox="0 0 800 190" fill="none" xmlns="http://www.w3.org/2000/svg">
<g clip-path="url(#clip0_2_156)">
<path d="M64 64H167C167 64 167 74 167 80C167 88.6996 159.5 95.5 151 95.5C142.5 95.5 95 95.5 95 95.5V190C95 190 85 190 79 190C73 190 64 182 64 174C64 166 64 64 64 64Z" fill="#FF6B6B"/>
<path d="M-3.0059e-05 0H189.952C189.952 0 189.952 11.5969 189.952 25.9025C189.952 40.2081 178.355 51.8051 164.049 51.8051H-1.51579e-05L-3.0059e-05 0Z" fill="black"/>
<path d="M51.805 0L51.805 189.952C51.805 189.952 40.2081 189.952 25.9025 189.952C11.5969 189.952 -6.04099e-05 178.355 -6.10352e-05 164.049L-3.0059e-05 0H51.805Z" fill="black"/>
</g>
<path d="M771.151 189.953L763.217 159.228H728.775L721.021 189.953H693.612L727.692 62.2957H765.923L800.003 189.953H771.151ZM746.807 88.8158H745.365L733.103 137.097H759.069L746.807 88.8158Z" fill="black"/>
<path d="M665.912 133.075L667.355 97.4094H665.732L642.289 163.068L618.846 97.4094H617.224L618.667 133.075V189.953H595.224V62.2957H627.142L642.649 105.274H644.091L659.6 62.2957H689.355V189.953H665.912V133.075Z" fill="black"/>
<path d="M524.065 189.953H497.377V62.2957H546.065C552.196 62.2957 557.667 63.2702 562.474 65.2219C567.283 67.052 571.312 69.7325 574.556 73.2687C577.923 76.8049 580.446 81.0727 582.131 86.0719C583.813 91.0712 584.654 96.6779 584.654 102.897C584.654 111.919 582.732 119.662 578.884 126.124C575.038 132.586 569.567 136.854 562.474 138.927L587.18 189.953H557.605L536.508 142.585H524.065V189.953ZM539.573 121.368C545.945 121.368 550.332 120.15 552.738 117.71C555.261 115.273 556.524 111.248 556.524 105.641V100.153C556.524 94.544 555.261 90.5219 552.738 88.0843C550.332 85.6441 545.945 84.424 539.573 84.424H524.065V121.368H539.573Z" fill="black"/>
<path d="M433.251 189.857C416.421 189.857 403.978 184.066 395.923 172.483C387.989 160.9 384.022 144.685 384.022 123.834C384.022 102.984 387.989 86.7692 395.923 75.1861C403.978 63.603 416.421 57.8115 433.251 57.8115C450.082 57.8115 462.464 63.603 470.398 75.1861C478.453 86.7692 482.48 102.984 482.48 123.834C482.48 144.685 478.453 160.9 470.398 172.483C462.464 184.066 450.082 189.857 433.251 189.857ZM433.251 167.727C440.945 167.727 446.235 164.864 449.12 159.133C452.125 153.281 453.628 145.17 453.628 134.808V112.679C453.628 102.438 452.125 94.4516 449.12 88.7208C446.235 82.8685 440.945 79.9424 433.251 79.9424C425.557 79.9424 420.207 82.8685 417.202 88.7208C414.317 94.4516 412.874 102.438 412.874 112.679V134.99C412.874 145.231 414.317 153.281 417.202 159.133C420.207 164.864 425.557 167.727 433.251 167.727Z" fill="black"/>
<path d="M289.06 189.952V62.2947H372.551V84.7901H316.109V114.051H366.6V136.547H316.109V189.952H289.06Z" fill="black"/>
<defs>
<clipPath id="clip0_2_156">
<rect width="189.952" height="189.952" fill="white"/>
</clipPath>
</defs>
</svg>
